PathFileType	4	(X/Y/Z)	TVC_26_BWA1_walk_RCNL2025.trc
DataRate	CameraRate	NumFrames	NumMarkers	Units	OrigDataRate	OrigDataStartFrame	OrigNumFrames
100	100	12	27	mm	100	547	728
Frame#	Time	R_Shoulder			L_Shoulder			C7			J_Notch			R_Elbow			L_Elbow			R_Wrist			L_Wrist			R_Asis			L_Asis			R_Psis			L_Psis			Sacral			Thoracic			Sternum			R_Thigh_Lateral			R_Knee_Lateral			R_Shank_Lateral			R_Ankle_Lateral			R_Heel			R_Toe			L_Thigh_Lateral			L_Knee_Lateral			L_Shank_Lateral			L_Ankle_Lateral			L_Heel			L_Toe		
		X1	Y1	Z1	X2	Y2	Z2	X3	Y3	Z3	X4	Y4	Z4	X5	Y5	Z5	X6	Y6	Z6	X7	Y7	Z7	X8	Y8	Z8	X9	Y9	Z9	X10	Y10	Z10	X11	Y11	Z11	X12	Y12	Z12	X13	Y13	Z13	X14	Y14	Z14	X15	Y15	Z15	X16	Y16	Z16	X17	Y17	Z17	X18	Y18	Z18	X19	Y19	Z19	X20	Y20	Z20	X21	Y21	Z21	X22	Y22	Z22	X23	Y23	Z23	X24	Y24	Z24	X25	Y25	Z25	X26	Y26	Z26	X27	Y27	Z27
547	5.46000000	191.440781	1359.734741	132.797119	194.307663	1367.561646	-187.493698	114.595787	1400.815430	-21.954409	264.254639	1303.343018	-17.774979	166.704269	1020.305969	250.913345	168.471359	1037.860352	-289.051025	225.529457	816.145294	293.343689	260.084435	832.060669	-287.220078	248.281723	951.443481	142.301956	278.560486	955.947266	-146.372040	46.503510	949.008484	48.633480	65.635696	947.909607	-96.076920	56.069603	948.459045	-23.721720	51.376499	1123.538208	-33.211624	314.109344	1066.781616	-21.196291	296.574463	582.984558	202.537415	385.096527	481.313568	164.697418	341.973633	309.025848	217.098648	302.369659	107.870216	167.768906	256.337341	89.480598	117.463531	435.074829	67.580803	159.507660	300.817963	588.337952	-188.977661	278.296234	465.696442	-123.538284	237.052048	251.124527	-161.809311	162.073151	67.967018	-95.715561	108.762047	55.424446	-46.180332	293.752411	37.874065	-75.687241
548	5.47000000	195.560883	1359.616699	133.265472	198.358871	1367.337646	-187.017670	118.704803	1400.665771	-21.466141	268.320923	1303.109863	-17.295015	170.959869	1020.447693	251.978195	172.531281	1037.510986	-288.249298	229.626022	816.371613	295.035156	265.883530	832.533081	-286.836472	252.362061	951.294312	142.668091	282.487976	955.647827	-145.833801	50.428898	948.938416	49.121384	69.545013	947.820129	-95.541542	59.986956	948.379272	-23.210079	55.390297	1123.443481	-32.694244	318.170074	1066.643066	-20.778742	299.657410	582.217529	203.407730	388.771698	481.078400	165.019394	351.381805	307.821655	218.319931	318.151764	104.922760	169.634415	272.546844	85.123436	119.643478	452.155365	68.546082	160.567276	303.754456	587.928772	-188.375412	280.098328	465.259521	-123.218483	237.999817	250.996582	-161.702118	162.119980	67.929604	-95.631439	108.805099	55.469135	-46.049656	293.778442	37.851231	-75.669411
549	5.48000000	199.720413	1359.446411	133.794739	202.407288	1367.073120	-186.478821	122.833313	1400.471924	-20.902447	272.408234	1302.840088	-16.759314	175.352371	1020.533447	253.102158	176.566971	1037.113525	-287.366211	233.944984	816.556610	296.752991	271.593803	832.944733	-286.284561	256.521057	951.071228	143.075623	286.417877	955.341064	-145.303116	54.381275	948.803284	49.718430	73.492943	947.677429	-94.928444	63.937109	948.240356	-22.605007	59.435249	1123.296997	-32.091156	322.260956	1066.459473	-20.327276	302.997803	581.477112	204.458649	392.265747	480.669922	165.362579	360.133728	306.698181	219.473328	333.029083	102.351379	171.317017	287.951355	81.229668	121.563637	468.184021	69.659286	161.592911	306.657806	587.504211	-187.795151	281.961578	464.799316	-122.880623	238.886505	250.839798	-161.604202	162.178879	67.905968	-95.553429	108.847778	55.519997	-45.927345	293.811737	37.826550	-75.666374
550	5.49000000	203.919037	1359.222656	134.386185	206.455307	1366.766968	-185.876266	126.982414	1400.232544	-20.262844	276.518127	1302.533325	-16.166418	179.881104	1020.560669	254.283783	180.582748	1036.667603	-286.403076	238.485344	816.696838	298.492798	277.033051	833.212921	-285.492920	260.759216	950.776428	143.531250	290.352264	955.035706	-144.788544	58.367271	948.601196	50.427979	77.484001	947.477966	-94.235435	67.925636	948.039581	-21.903728	63.514088	1123.096313	-31.401657	326.384277	1066.229614	-19.839573	306.585388	580.782166	205.648514	395.602936	480.099091	165.724503	368.194275	305.623749	220.544174	346.910828	100.114014	172.798996	302.452332	77.761101	123.196114	483.077911	70.835449	162.589020	309.512177	587.057312	-187.248184	283.889404	464.314392	-122.525482	239.724030	250.650696	-161.510590	162.251587	67.898613	-95.482140	108.888832	55.578041	-45.817852	293.854309	37.799492	-75.679001
551	5.50000000	208.155930	1358.944702	135.041107	210.505295	1366.418335	-185.209152	131.152924	1399.946533	-19.546989	280.651978	1302.190063	-15.514767	184.544846	1020.527466	255.521683	184.583160	1036.172852	-285.360779	243.245552	816.790039	300.250168	282.097382	833.280518	-284.434723	265.076233	950.413086	144.042633	294.295807	954.738708	-144.294891	62.394199	948.331055	51.251205	81.523293	947.218933	-93.461212	71.958746	947.774994	-21.105003	67.629517	1122.839111	-30.625349	330.542450	1065.953369	-19.312567	310.386353	580.135803	206.928848	398.807037	479.377655	166.102112	375.541016	304.565796	221.520325	359.722809	98.161652	174.068741	315.961670	74.672203	124.524513	496.769684	71.984978	163.552261	312.316681	586.582336	-186.736389	285.886200	463.803589	-122.152061	240.533615	250.429886	-161.415161	162.340195	67.910309	-95.417198	108.928429	55.644432	-45.724152	293.907501	37.769352	-75.706894
552	5.51000000	212.429794	1358.613159	135.760834	214.559692	1366.027222	-184.476700	135.345413	1399.613647	-18.754705	284.810913	1301.811279	-14.802712	189.341705	1020.433167	256.814392	188.572906	1035.629761	-284.240051	248.223480	816.834930	302.020828	286.757294	833.115540	-283.112305	269.471161	949.985657	144.618057	298.255768	954.454346	-143.822830	66.469978	947.992554	52.186924	85.616402	946.898499	-92.605476	76.043190	947.445526	-20.209276	71.784164	1122.524170	-29.762211	334.738037	1065.631348	-18.742443	314.351257	579.524719	208.249161	401.901093	478.518341	166.492111	382.165710	303.493195	222.392365	371.409576	96.441483	175.120728	328.404358	71.913338	125.543976	509.210052	73.019409	164.471817	315.085083	586.075623	-186.252625	287.956512	463.266022	-121.757851	241.341873	250.181427	-161.311356	162.446899	67.943916	-95.357239	108.968178	55.720695	-45.647797	293.971741	37.735512	-75.748558
553	5.52000000	216.738922	1358.229248	136.546677	218.620956	1365.594238	-183.678116	139.560287	1399.234497	-17.885990	288.995972	1301.398560	-14.028564	194.269150	1020.277710	258.160461	192.556885	1035.039795	-283.041412	253.416512	816.831482	303.800552	291.041077	832.706909	-281.537888	273.942596	949.499573	145.265961	302.241669	954.184021	-143.368637	70.603004	947.586243	53.231529	89.769196	946.515747	-91.668968	80.186100	947.050995	-19.218719	75.980530	1122.151001	-28.812706	338.973816	1065.265625	-18.124701	318.422821	578.920593	209.561020	404.907806	477.534607	166.891235	388.075623	302.378021	223.153625	381.936371	94.900177	175.955231	339.721039	69.434113	126.260719	520.369629	73.856712	165.330811	317.843506	585.536377	-185.781952	290.104126	462.701202	-121.339279	242.176529	249.911819	-161.192795	162.573761	68.002197	-95.300217	109.010895	55.808720	-45.589008	294.046722	37.697754	-75.801804
554	5.53000000	221.081299	1357.794922	137.399902	222.691635	1365.120972	-182.812744	143.797653	1398.810059	-16.941040	293.207855	1300.954224	-13.190626	199.324020	1020.062134	259.558289	196.540054	1034.404541	-281.765259	258.821419	816.780670	305.585281	295.019470	832.065186	-279.723816	278.488647	948.961060	145.994583	306.264923	953.926086	-142.924210	74.802078	947.113647	54.379013	93.987671	946.070557	-90.653450	84.394875	946.592102	-18.137218	80.220879	1121.719971	-27.777840	343.252563	1064.858887	-17.454245	322.542725	578.285950	210.821198	407.849823	476.440857	167.296524	393.294373	301.197540	223.800217	391.290344	93.487000	176.577850	349.870514	67.186752	126.690819	530.240417	74.425911	166.108780	320.626221	584.965820	-185.303833	292.330994	462.109161	-120.892105	243.062378	249.628448	-161.053528	162.722412	68.087494	-95.243805	109.060104	55.910450	-45.546837	294.131714	37.656528	-75.864265
555	5.54000000	225.454636	1357.313477	138.321716	226.774353	1364.609375	-181.879990	148.057449	1398.342163	-15.920273	297.447144	1300.481079	-12.287229	204.502457	1019.788269	261.006226	200.527359	1033.727173	-280.412048	264.434517	816.684540	307.371185	298.792328	831.227112	-277.685989	283.107147	948.377319	146.811401	310.338348	953.676392	-142.477203	79.076241	946.577087	55.621155	98.277702	945.563965	-89.561707	88.676971	946.070526	-16.970276	84.507240	1121.232178	-26.659225	347.577118	1064.415039	-16.725523	326.658356	577.581177	211.993851	410.749969	475.252563	167.705643	397.861877	299.935547	224.331070	399.481445	92.156616	176.998978	358.832153	65.128838	126.858688	538.836548	74.670738	166.784866	323.470459	584.366638	-184.794693	294.636658	461.490509	-120.411850	244.017563	249.337982	-160.888046	162.893723	68.201302	-95.185646	109.119408	56.027504	-45.519268	294.226013	37.613026	-75.933823
556	5.55000000	229.856430	1356.788330	139.313156	230.871796	1364.062500	-180.879364	152.339432	1397.833252	-14.824353	301.714203	1299.982788	-11.316777	209.799988	1019.458862	262.502502	204.523773	1033.010986	-278.982269	270.251587	816.546448	309.154602	302.468185	830.255249	-275.455444	287.795593	947.756287	147.722733	314.475525	953.428223	-142.011475	83.434624	945.979858	56.947769	102.644829	944.997681	-88.397362	93.039726	945.488770	-15.724796	88.841293	1120.689941	-25.459135	351.950348	1063.938843	-15.932708	330.727966	576.772644	213.051834	413.631714	473.986328	168.117188	401.833405	298.583466	224.748138	406.542175	90.871422	177.233337	366.607635	63.225643	126.795677	546.194519	74.552170	167.341125	326.410095	583.743103	-184.230911	297.017548	460.846649	-119.894012	245.051010	249.045151	-160.691376	163.087463	68.343704	-95.123550	109.191986	56.160870	-45.503262	294.328796	37.569031	-76.008667
557	5.56000000	234.284042	1356.223877	140.375122	234.986725	1363.484131	-179.810547	156.643066	1397.286743	-13.654217	306.009186	1299.463501	-10.277792	215.211594	1019.077393	264.045288	208.534149	1032.260620	-277.476654	276.267944	816.370544	310.932175	306.144241	829.228577	-273.088234	292.551025	947.106812	148.733398	318.690277	953.173157	-141.507568	87.886177	945.325989	58.347065	107.094002	944.374512	-87.164787	97.490089	944.850250	-14.408861	93.224297	1120.096436	-24.180525	356.374878	1063.435913	-15.069890	334.723358	575.839661	213.977020	416.519379	472.660217	168.531067	405.277710	297.141205	225.056747	412.526794	89.603233	177.299591	373.221588	61.452049	126.538971	552.372498	74.049774	167.765671	329.470795	583.100830	-183.591492	299.466919	460.179901	-119.334198	246.161423	248.752594	-160.459244	163.301987	68.512894	-95.055519	109.280228	56.310787	-45.494732	294.439026	37.526546	-76.087196
558	5.57000000	238.734665	1355.625244	141.508255	239.121887	1362.878662	-178.673325	160.967682	1396.706421	-12.411096	310.331970	1298.927490	-9.168950	220.731659	1018.648193	265.632751	212.563263	1031.481323	-275.896179	282.478424	816.162231	312.700790	309.896240	828.226715	-270.661377	297.370148	946.438293	149.846466	322.995758	952.901855	-140.943527	92.439308	944.620483	59.806122	111.629372	943.698059	-85.868851	102.034340	944.159271	-13.031364	97.657074	1119.455688	-22.827051	360.853088	1062.912476	-14.131289	338.629791	574.779053	214.760010	419.438263	471.293701	168.948914	408.274902	295.617401	225.265884	417.509613	88.334099	177.220154	378.721893	59.793716	126.130165	557.449524	73.161957	168.055130	332.666840	582.446106	-182.860184	301.974640	459.493378	-118.728081	247.338120	248.461761	-160.188263	163.534225	68.705078	-94.979797	109.385452	56.476662	-45.488514	294.554901	37.487152	-76.167824
